<svg width="14" height="14" viewBox="0 0 14 14" fill="none" xmlns="http://www.w3.org/2000/svg">
<path d="M5.95 10.15L11.2375 4.8625L10.1875 3.8125L5.95 8.05L3.8125 5.9125L2.7625 6.9625L5.95 10.15ZM1.75 13.75C1.3375 13.75 0.984251 13.603 0.690251 13.309C0.396251 13.015 0.249501 12.662 0.250001 12.25V1.75C0.250001 1.3375 0.397001 0.984251 0.691001 0.690251C0.985001 0.396251 1.338 0.249501 1.75 0.250001H12.25C12.6625 0.250001 13.0158 0.397001 13.3098 0.691001C13.6038 0.985001 13.7505 1.338 13.75 1.75V12.25C13.75 12.6625 13.603 13.0158 13.309 13.3098C13.015 13.6038 12.662 13.7505 12.25 13.75H1.75ZM1.75 12.25H12.25V1.75H1.75V12.25Z" fill="white"/>
</svg>
