<svg width="37" height="37" viewBox="0 0 37 37" fill="none" xmlns="http://www.w3.org/2000/svg">
<path d="M21.8917 4.43228C20.0006 4.43228 18.187 5.1835 16.8498 6.52067C15.5127 7.85784 14.7615 9.67144 14.7615 11.5625V15.5323H10.9458C10.7547 15.5323 10.599 15.6864 10.599 15.8792V21.1208C10.599 21.312 10.7531 21.4677 10.9458 21.4677H14.7615V32.2208C14.7615 32.412 14.9156 32.5677 15.1083 32.5677H20.35C20.5412 32.5677 20.6969 32.4135 20.6969 32.2208V21.4677H24.5464C24.7052 21.4677 24.844 21.3598 24.8825 21.2056L26.1929 15.9639C26.2058 15.9128 26.2069 15.8594 26.196 15.8078C26.1852 15.7561 26.1627 15.7077 26.1303 15.6661C26.0979 15.6244 26.0564 15.5908 26.009 15.5676C25.9616 15.5444 25.9096 15.5323 25.8568 15.5323H20.6969V11.5625C20.6969 11.4056 20.7278 11.2502 20.7878 11.1053C20.8479 10.9603 20.9359 10.8286 21.0468 10.7176C21.1578 10.6067 21.2895 10.5187 21.4344 10.4586C21.5794 10.3986 21.7348 10.3677 21.8917 10.3677H25.9C26.0912 10.3677 26.2469 10.2135 26.2469 10.0208V4.77916C26.2469 4.58799 26.0927 4.43228 25.9 4.43228H21.8917Z" fill="#243666"/>
</svg>
