<svg width="32" height="33" viewBox="0 0 32 33" fill="none" xmlns="http://www.w3.org/2000/svg">
<g clip-path="url(#clip0_393_262)">
<path d="M31.9848 16.8087C31.9848 15.4567 31.8759 14.4701 31.6403 13.447H16.3188V19.5492H25.3121C25.1309 21.0657 24.1518 23.3495 21.9759 24.8841L21.9454 25.0884L26.7898 28.87L27.1254 28.9037C30.2078 26.0352 31.9848 21.8148 31.9848 16.8087Z" fill="#4285F4"/>
<path d="M16.3188 32.8866C20.7248 32.8866 24.4236 31.4249 27.1254 28.9037L21.9759 24.8841C20.5979 25.8525 18.7484 26.5285 16.3188 26.5285C12.0034 26.5285 8.34076 23.6601 7.03513 19.6955L6.84376 19.7118L1.80651 23.64L1.74063 23.8245C4.42413 29.1959 9.93626 32.8866 16.3188 32.8866Z" fill="#34A853"/>
<path d="M7.03512 19.6955C6.69062 18.6723 6.49125 17.576 6.49125 16.4433C6.49125 15.3105 6.69063 14.2143 7.017 13.1912L7.00787 12.9733L1.9075 8.98206L1.74063 9.06204C0.634625 11.291 0 13.7941 0 16.4433C0 19.0925 0.634625 21.5955 1.74063 23.8245L7.03512 19.6955Z" fill="#FBBC05"/>
<path d="M16.3188 6.35804C19.383 6.35804 21.45 7.69177 22.6286 8.80634L27.2341 4.27526C24.4056 1.62607 20.7248 0 16.3188 0C9.93626 0 4.42413 3.69058 1.74063 9.06203L7.01701 13.1912C8.34076 9.22652 12.0034 6.35804 16.3188 6.35804Z" fill="#EB4335"/>
</g>
<defs>
<clipPath id="clip0_393_262">
<rect width="32" height="33" fill="white"/>
</clipPath>
</defs>
</svg>
