<svg width="23" height="18" viewBox="0 0 23 18" fill="none" xmlns="http://www.w3.org/2000/svg">
<path d="M23 1V7H5V1H23ZM22 6V2H6V6H22ZM9 3V5H7V3H9ZM12 3V5H10V3H12ZM15 3V5H13V3H15ZM18 3V5H16V3H18ZM21 3V5H19V3H21ZM23 8V17H5V8H23ZM22 16V9H6V16H22ZM9 10V12H7V10H9ZM12 10V12H10V10H12ZM15 10V12H13V10H15ZM21 10V12H16V10H21ZM15 13V15H7V13H15ZM18 13V15H16V13H18ZM21 13V15H19V13H21Z" fill="white"/>
<path d="M14 5H8V0H4C1.8 0 0 1.8 0 4V10C0 11.1 0.9 12 2 12H4V14.9C3.4 14.5 2.8 14.1 2.3 13.6L0.9 15C2.7 16.9 5.2 18 8 18C10.8 18 13.3 16.9 15.1 15.1L13.7 13.7C13.2 14.2 12.7 14.6 12.1 15V12H14.1C15.2 12 16.1 11.1 16.1 10V7C16 5.9 15.1 5 14 5ZM10 15.8C9.4 16 8.7 16 8 16C7.3 16 6.6 15.9 6 15.8V12H10V15.8Z" fill="black"/>
</svg>
