<svg width="283" height="291" viewBox="0 0 283 291" fill="none" xmlns="http://www.w3.org/2000/svg">
<g clip-path="url(#clip0_393_75)">
<path d="M188.539 290.53H95.8036C82.315 290.53 71.3425 279.579 71.3425 266.116V24.4142C71.3425 10.9514 82.315 0 95.8036 0H188.539C202.028 0 213 10.9514 213 24.4142V266.116C213 279.579 202.028 290.53 188.539 290.53Z" fill="#DADBDC"/>
<path d="M188.606 283.921H95.7364C85.7532 283.921 77.6283 275.812 77.6283 265.848V24.2081C77.6283 14.244 85.7532 6.1347 95.7364 6.1347H188.606C198.589 6.1347 206.714 14.244 206.714 24.2081V265.848C206.714 275.812 198.589 283.921 188.606 283.921Z" fill="white"/>
<path d="M155.305 22.2191H129.043C125.576 22.2191 122.757 19.4058 122.757 15.9454C122.757 12.4851 125.576 9.67172 129.043 9.67172H155.305C158.772 9.67172 161.59 12.4851 161.59 15.9454C161.59 19.4058 158.772 22.2191 155.305 22.2191Z" fill="#DADBDC"/>
<path d="M182.104 96.0079H105.259C103.736 96.0079 102.498 94.4359 102.498 92.5092C102.498 90.5825 103.736 89.0105 105.259 89.0105H182.104C183.626 89.0105 184.865 90.5825 184.865 92.5092C184.865 94.4359 183.626 96.0079 182.104 96.0079Z" fill="#DADBDC"/>
<path d="M182.104 111.512H105.259C103.736 111.512 102.498 109.94 102.498 108.014C102.498 106.087 103.736 104.515 105.259 104.515H182.104C183.626 104.515 184.865 106.087 184.865 108.014C184.865 109.94 183.626 111.512 182.104 111.512Z" fill="#DADBDC"/>
<path d="M160.068 127.017H105.259C103.736 127.017 102.498 125.445 102.498 123.518C102.498 121.591 103.736 120.019 105.259 120.019H160.068C161.59 120.019 162.829 121.591 162.829 123.518C162.829 125.445 161.59 127.017 160.068 127.017Z" fill="#DADBDC"/>
<path d="M142.171 218.175C160.287 218.175 174.973 203.517 174.973 185.435C174.973 167.354 160.287 152.696 142.171 152.696C124.055 152.696 109.369 167.354 109.369 185.435C109.369 203.517 124.055 218.175 142.171 218.175Z" fill="#243666"/>
<path d="M133.446 186.116C135.141 189.428 136.836 192.744 138.531 196.056C139.016 197.01 140.443 196.708 140.726 195.769C142.949 188.369 147.079 181.625 152.644 176.262C153.758 175.189 152.058 173.497 150.944 174.566C145.086 180.211 140.75 187.348 138.407 195.131L140.601 194.844C138.906 191.532 137.211 188.215 135.516 184.903C134.815 183.528 132.74 184.74 133.441 186.111H133.446V186.116Z" fill="white"/>
<path d="M103.28 290.53C103.28 290.789 103.069 291 102.81 291H0.470591C0.211286 291 0 290.789 0 290.53C0 290.272 0.211286 290.061 0.470591 290.061H102.81C103.069 290.061 103.28 290.272 103.28 290.53Z" fill="#3F3D58"/>
</g>
<path d="M252.878 132.837L244.926 135.545L244.801 124.085L252.038 124.004L252.878 132.837Z" fill="#F3A3A6"/>
<path d="M245.733 127.249C250.125 127.249 253.685 123.695 253.685 119.312C253.685 114.928 250.125 111.375 245.733 111.375C241.341 111.375 237.781 114.928 237.781 119.312C237.781 123.695 241.341 127.249 245.733 127.249Z" fill="#F3A3A6"/>
<path d="M247.908 118.502C246.578 118.478 245.69 117.145 245.157 115.923C244.624 114.706 244.076 113.302 242.842 112.808C241.829 112.405 240.081 115.219 239.274 114.486C238.434 113.719 239.202 109.722 240.076 108.998C240.95 108.274 242.156 108.121 243.289 108.054C246.059 107.896 248.845 108.087 251.567 108.624C253.248 108.955 254.986 109.463 256.211 110.661C257.762 112.18 258.18 114.495 258.314 116.661C258.453 118.876 258.348 121.2 257.291 123.156C256.23 125.106 253.988 126.563 251.812 126.093C251.582 124.919 251.788 123.712 251.86 122.513C251.932 121.32 251.827 120.031 251.087 119.087C250.348 118.142 248.782 117.783 247.942 118.636" fill="#2F2E43"/>
<path d="M257.719 121.143C258.506 120.553 259.452 120.055 260.432 120.165C261.493 120.28 262.396 121.143 262.679 122.168C262.962 123.194 262.669 124.33 262.026 125.178C261.383 126.026 260.417 126.592 259.39 126.88C258.794 127.047 258.146 127.119 257.575 126.88C256.734 126.53 256.273 125.47 256.59 124.617" fill="#2F2E43"/>
<path d="M228.129 196.125C227.63 198.737 228.624 201.109 230.357 201.421C232.086 201.732 233.896 199.863 234.396 197.251C234.612 196.211 234.564 195.133 234.256 194.112L240.374 153.177L232.134 151.725L229.421 193.244C228.758 194.093 228.311 195.08 228.129 196.13V196.125Z" fill="#F3A3A6"/>
<path d="M244.782 130.287L239.169 130.349C235.207 130.992 234.151 133.12 233.296 137.031C231.985 142.997 230.314 150.949 230.664 151.059C231.226 151.241 240.83 155.621 245.69 154.538L244.782 130.287Z" fill="#243666"/>
<path d="M251.676 260.386L244.204 260.469L244.323 271.046L251.794 270.963L251.676 260.386Z" fill="#F3A3A6"/>
<path d="M237.099 277.534C236.312 277.544 235.615 277.534 235.087 277.491C233.099 277.333 231.193 275.89 230.227 275.047C229.795 274.668 229.651 274.055 229.867 273.527C230.021 273.149 230.338 272.861 230.732 272.741L235.961 271.189L244.388 265.375L244.484 265.543C244.523 265.605 245.373 267.096 245.661 268.107C245.771 268.49 245.747 268.811 245.589 269.061C245.478 269.233 245.325 269.334 245.2 269.396C245.354 269.554 245.839 269.875 247.327 270.096C249.493 270.417 249.93 268.169 249.944 268.073L249.959 267.997L250.021 267.953C251.044 267.278 251.673 266.971 251.894 267.033C252.033 267.072 252.259 267.139 252.941 273.235C253.003 273.427 253.45 274.826 253.171 276.173C252.869 277.64 246.468 277.203 245.19 277.103C245.152 277.108 240.369 277.501 237.089 277.534H237.099Z" fill="#2F2E43"/>
<path d="M272.853 251.825L266.557 255.841L272.266 264.753L278.561 260.737L272.853 251.825Z" fill="#F3A3A6"/>
<path d="M264.686 275.775C263.807 275.785 263.001 275.689 262.425 275.593C261.858 275.497 261.411 275.056 261.315 274.491C261.243 274.083 261.363 273.676 261.632 273.369L265.243 269.291L269.311 259.906L269.483 259.998C269.546 260.031 271.058 260.846 271.841 261.55C272.139 261.819 272.288 262.102 272.288 262.399C272.288 262.605 272.211 262.773 272.134 262.888C272.35 262.94 272.931 262.955 274.309 262.356C276.317 261.483 275.495 259.346 275.457 259.259L275.428 259.188L275.462 259.12C275.971 258.009 276.345 257.414 276.561 257.347C276.701 257.309 276.926 257.242 280.739 262.054C280.893 262.183 282.016 263.132 282.492 264.421C283.01 265.825 277.354 268.835 276.211 269.425C276.177 269.454 270.266 273.839 267.836 275.095C266.871 275.593 265.723 275.756 264.677 275.766L264.686 275.775Z" fill="#2F2E43"/>
<path d="M256.177 171.85L235.26 172.08L233.579 191.519L242.684 263.189L253.363 263.07L248.633 221.67L266.372 258.9L275.788 252.161L261.872 217.376C261.872 217.376 266.367 186.889 262.487 179.35C258.607 171.811 256.182 171.84 256.182 171.84V171.85H256.177Z" fill="#2F2E43"/>
<path d="M266.593 172.918L233.373 173.287L242.861 130.311L257.339 130.148L266.593 172.918Z" fill="#243666"/>
<path d="M269.839 195.665C270.396 198.267 269.455 200.659 267.731 201.009C266.007 201.358 264.158 199.532 263.601 196.93C263.361 195.895 263.385 194.816 263.668 193.786L256.638 152.995L264.845 151.361L268.48 192.813C269.162 193.647 269.627 194.625 269.839 195.67V195.665Z" fill="#F3A3A6"/>
<path d="M251.726 130.21L257.339 130.148C261.315 130.704 262.415 132.808 263.361 136.7C264.801 142.638 266.65 150.546 266.305 150.666C265.743 150.858 256.244 155.449 251.361 154.476L251.731 130.21H251.726Z" fill="#243666"/>
<defs>
<clipPath id="clip0_393_75">
<rect width="213" height="291" fill="white"/>
</clipPath>
</defs>
</svg>
