<svg width="29" height="29" viewBox="0 0 29 29" fill="none" xmlns="http://www.w3.org/2000/svg">
<path d="M24.1667 8.45831H13.2917M16.9167 20.5416H6.04169" stroke="white" stroke-width="2" stroke-linecap="round" stroke-linejoin="round"/>
<path d="M20.5417 24.1666C22.5437 24.1666 24.1667 22.5437 24.1667 20.5416C24.1667 18.5396 22.5437 16.9166 20.5417 16.9166C18.5397 16.9166 16.9167 18.5396 16.9167 20.5416C16.9167 22.5437 18.5397 24.1666 20.5417 24.1666Z" stroke="white" stroke-width="2" stroke-linecap="round" stroke-linejoin="round"/>
<path d="M8.45834 12.0833C10.4604 12.0833 12.0833 10.4603 12.0833 8.45831C12.0833 6.45628 10.4604 4.83331 8.45834 4.83331C6.45631 4.83331 4.83334 6.45628 4.83334 8.45831C4.83334 10.4603 6.45631 12.0833 8.45834 12.0833Z" stroke="white" stroke-width="2" stroke-linecap="round" stroke-linejoin="round"/>
</svg>
