<svg width="19" height="21" viewBox="0 0 19 21" fill="none" xmlns="http://www.w3.org/2000/svg">
<path d="M18.7808 14.7681C18.1908 13.7764 17.4808 11.8903 17.4808 8.55556V7.86528C17.4808 3.55833 13.9306 0.0291667 9.56049 0L9.50049 0C8.4512 0.00127594 7.41243 0.203466 6.44351 0.595027C5.47459 0.986588 4.59449 1.55985 3.85345 2.28208C3.11242 3.00432 2.52496 3.86138 2.12462 4.80433C1.72429 5.74728 1.51892 6.75766 1.52023 7.77778V8.55556C1.52023 11.8903 0.810208 13.7764 0.220188 14.7681C0.0774947 15.0044 0.00154415 15.2731 2.32982e-05 15.5472C-0.00149756 15.8212 0.0714653 16.0907 0.211528 16.3285C0.35159 16.5663 0.553781 16.7639 0.79764 16.9014C1.0415 17.0388 1.31837 17.1111 1.60023 17.1111H5.50036C5.50036 18.1425 5.9218 19.1317 6.67197 19.861C7.42214 20.5903 8.43959 21 9.50049 21C10.5614 21 11.5788 20.5903 12.329 19.861C13.0792 19.1317 13.5006 18.1425 13.5006 17.1111H17.4007C17.6826 17.1129 17.9598 17.0418 18.204 16.9051C18.4483 16.7684 18.6508 16.5711 18.7908 16.3333C18.9296 16.0942 19.0017 15.824 19 15.5494C18.9982 15.2748 18.9227 15.0055 18.7808 14.7681ZM9.50049 19.4444C8.86476 19.4419 8.25582 19.1952 7.80629 18.7582C7.35676 18.3212 7.10305 17.7292 7.10041 17.1111H11.9006C11.8979 17.7292 11.6442 18.3212 11.1947 18.7582C10.7452 19.1952 10.1362 19.4419 9.50049 19.4444ZM1.60023 15.5556C2.29026 14.3889 3.12028 12.2403 3.12028 8.55556V7.77778C3.11765 6.96158 3.28074 6.15291 3.60019 5.39811C3.91965 4.6433 4.3892 3.95722 4.98192 3.37918C5.57464 2.80113 6.27887 2.3425 7.05426 2.02957C7.82965 1.71663 8.66094 1.55555 9.50049 1.55556H9.55049C13.0406 1.575 15.8807 4.41389 15.8807 7.86528V8.55556C15.8807 12.2403 16.7107 14.3889 17.4007 15.5556H1.60023Z" fill="#CACACC"/>
</svg>
