<svg width="28" height="21" viewBox="0 0 28 21" fill="none" xmlns="http://www.w3.org/2000/svg">
<path d="M18 20H12C12 19.4696 12.2107 18.9609 12.5858 18.5858C12.9609 18.2107 13.4696 18 14 18V6H8V3H22V6H16V18C16.5304 18 17.0391 18.2107 17.4142 18.5858C17.7893 18.9609 18 19.4696 18 20ZM28 0V20H26V13H21V20H19V12C19 11.4696 19.2107 10.9609 19.5858 10.5858C19.9609 10.2107 20.4696 10 21 10H26V0H28Z" fill="white"/>
<path d="M18 5V11H0V5H18ZM17 10V6H1V10H17ZM4 7V9H2V7H4ZM7 7V9H5V7H7ZM10 7V9H8V7H10ZM13 7V9H11V7H13ZM16 7V9H14V7H16ZM18 12V21H0V12H18ZM17 20V13H1V20H17ZM4 14V16H2V14H4ZM7 14V16H5V14H7ZM10 14V16H8V14H10ZM16 14V16H11V14H16ZM10 17V19H2V17H10ZM13 17V19H11V17H13ZM16 17V19H14V17H16Z" fill="black"/>
</svg>
