<svg width="19" height="20" viewBox="0 0 19 20" fill="none" xmlns="http://www.w3.org/2000/svg">
<path d="M19 11V14C19 15.0609 18.5786 16.0783 17.8284 16.8284C17.0783 17.5786 16.0609 18 15 18H5C3.93913 18 2.92172 17.5786 2.17157 16.8284C1.42143 16.0783 1 15.0609 1 14V11.6C1 11.4409 1.06321 11.2883 1.17574 11.1757C1.28826 11.0632 1.44087 11 1.6 11H19ZM19 11V5C19 3.93913 18.5786 2.92172 17.8284 2.17157C17.0783 1.42143 16.0609 1 15 1H10M14 18L15 20M6 18L5 20" stroke="white" stroke-width="1.5" stroke-linecap="round" stroke-linejoin="round"/>
<path d="M13.4 6H6.60002C6.26902 6 6.00402 5.732 6.04002 5.402C6.18602 4.075 6.86302 1 10 1C13.137 1 13.814 4.075 13.96 5.402C13.996 5.732 13.731 6 13.4 6Z" stroke="white" stroke-width="1.5" stroke-linecap="round" stroke-linejoin="round"/>
</svg>
