<svg width="24" height="23" viewBox="0 0 24 23" fill="none" xmlns="http://www.w3.org/2000/svg">
<path d="M2.974 2.58C3.17582 1.83919 3.61565 1.18531 4.2257 0.719093C4.83576 0.252877 5.58219 0.000202364 6.35 1.66213e-07H17.65C18.4181 -0.000236485 19.165 0.252237 19.7755 0.718486C20.386 1.18474 20.8261 1.83886 21.028 2.58L23.856 12.947C24.55 15.492 22.635 18 19.997 18H10.002V16.5H19.997C20.3814 16.5 20.7607 16.4114 21.1053 16.241C21.4499 16.0706 21.7506 15.823 21.9839 15.5175C22.2173 15.2119 22.377 14.8567 22.4507 14.4794C22.5245 14.1021 22.5102 13.7129 22.409 13.342L19.581 2.974C19.4656 2.55059 19.2141 2.1769 18.8653 1.91054C18.5166 1.64417 18.0899 1.49991 17.651 1.5H6.351C5.91214 1.49991 5.48544 1.64417 5.13667 1.91054C4.7879 2.1769 4.53642 2.55059 4.421 2.974L3.323 7H2.25C2.082 7 1.917 7.013 1.757 7.037L2.974 2.58ZM9.992 21H18.252C18.4509 21 18.6417 20.921 18.7823 20.7803C18.923 20.6397 19.002 20.4489 19.002 20.25C19.002 20.0511 18.923 19.8603 18.7823 19.7197C18.6417 19.579 18.4509 19.5 18.252 19.5H10.002V20.75C10.002 20.834 9.998 20.918 9.992 21ZM4.501 14C4.89882 14 5.28036 13.842 5.56166 13.5607C5.84296 13.2794 6.001 12.8978 6.001 12.5C6.001 12.1022 5.84296 11.7206 5.56166 11.4393C5.28036 11.158 4.89882 11 4.501 11C4.10318 11 3.72164 11.158 3.44034 11.4393C3.15904 11.7206 3.001 12.1022 3.001 12.5C3.001 12.8978 3.15904 13.2794 3.44034 13.5607C3.72164 13.842 4.10318 14 4.501 14ZM0 10.25C0 9.65326 0.237053 9.08097 0.65901 8.65901C1.08097 8.23705 1.65326 8 2.25 8H6.751C7.04647 8 7.33906 8.0582 7.61204 8.17127C7.88502 8.28434 8.13306 8.45008 8.34199 8.65901C8.55092 8.86794 8.71666 9.11598 8.82973 9.38896C8.9428 9.66195 9.001 9.95453 9.001 10.25V20.75C9.001 21.0455 8.9428 21.3381 8.82973 21.611C8.71666 21.884 8.55092 22.1321 8.34199 22.341C8.13306 22.5499 7.88502 22.7157 7.61204 22.8287C7.33906 22.9418 7.04647 23 6.751 23H2.251C1.95544 23.0001 1.66275 22.942 1.38966 22.829C1.11656 22.716 0.868401 22.5503 0.659363 22.3413C0.450326 22.1324 0.284502 21.8843 0.171367 21.6113C0.0582311 21.3382 -2.91909e-08 21.0456 0 20.75V10.25ZM2.25 9.5C2.05109 9.5 1.86032 9.57902 1.71967 9.71967C1.57902 9.86032 1.5 10.0511 1.5 10.25V20.75C1.5 21.164 1.836 21.5 2.25 21.5H6.751C6.94991 21.5 7.14068 21.421 7.28133 21.2803C7.42198 21.1397 7.501 20.9489 7.501 20.75V10.25C7.501 10.0511 7.42198 9.86032 7.28133 9.71967C7.14068 9.57902 6.94991 9.5 6.751 9.5H2.25Z" fill="white"/>
</svg>
