<svg width="16" height="16" viewBox="0 0 16 16" fill="none" xmlns="http://www.w3.org/2000/svg">
<path d="M6.87499 15.3L0.274985 8.7C0.174985 8.6 0.103985 8.49167 0.0619849 8.375C0.0199849 8.25833 -0.000681559 8.13333 -1.48924e-05 8C-1.48924e-05 7.86667 0.0209853 7.74167 0.0629853 7.625C0.104985 7.50833 0.175652 7.4 0.274985 7.3L6.87499 0.699999C7.05832 0.516666 7.28765 0.421 7.56298 0.413C7.83832 0.405 8.07565 0.500666 8.27498 0.699999C8.47498 0.883333 8.57932 1.11267 8.58799 1.388C8.59665 1.66333 8.50065 1.90067 8.29998 2.1L3.39999 7H14.575C14.8583 7 15.096 7.096 15.288 7.288C15.48 7.48 15.5757 7.71733 15.575 8C15.575 8.28333 15.4793 8.521 15.288 8.713C15.0967 8.905 14.859 9.00067 14.575 9H3.39999L8.29998 13.9C8.48332 14.0833 8.57932 14.3167 8.58799 14.6C8.59665 14.8833 8.50065 15.1167 8.29998 15.3C8.11665 15.5 7.88332 15.6 7.59999 15.6C7.31665 15.6 7.07499 15.5 6.87499 15.3Z" fill="#243666"/>
</svg>
