<svg viewBox="0 0 39 32" fill="none" xmlns="http://www.w3.org/2000/svg">
<path d="M39 3.89665C37.5396 4.54687 35.9906 4.97367 34.4044 5.16287C36.0566 4.16765 37.3251 2.59169 37.9225 0.71395C36.3519 1.65065 34.6335 2.31062 32.8417 2.66534C31.3821 1.10254 29.3027 0.125854 27.0013 0.125854C22.5824 0.125854 18.9997 3.72639 18.9997 8.16719C18.9997 8.79755 19.0705 9.41121 19.2069 9.99992C12.5571 9.66446 6.66138 6.46308 2.71492 1.59785C2.02632 2.78553 1.63175 4.16704 1.63175 5.64057C1.63175 8.43054 3.04444 10.8918 5.19127 12.3339C3.92064 12.2939 2.67797 11.949 1.56701 11.328C1.56655 11.3617 1.56655 11.3954 1.56655 11.4292C1.56655 15.3254 4.32458 18.5756 7.98479 19.3144C6.80655 19.6364 5.57065 19.6836 4.3715 19.4522C5.38962 22.647 8.34463 24.9718 11.8458 25.0369C9.10741 27.1936 5.65729 28.4792 1.90871 28.4792C1.26278 28.4792 0.62598 28.4411 0 28.3668C3.54093 30.6485 7.74668 31.9798 12.2652 31.9798C26.9827 31.9798 35.0305 19.7262 35.0305 9.09979C35.0305 8.751 35.0229 8.40421 35.0074 8.0594C36.5738 6.92131 37.9258 5.51168 39 3.89665Z" fill="#55ACEE"/>
</svg>
