<svg width="31" height="26" viewBox="0 0 31 26" fill="none" xmlns="http://www.w3.org/2000/svg">
<path d="M16.2724 0.514996C16.182 0.409488 16.0688 0.324607 15.9409 0.266358C15.8131 0.20811 15.6736 0.177917 15.5324 0.177917C15.3912 0.177917 15.2517 0.20811 15.1238 0.266358C14.996 0.324607 14.8828 0.409488 14.7924 0.514996C12.4861 3.2075 7.93582 6.4025 5.31884 7.8245C5.18882 7.89527 5.07744 7.99441 4.99344 8.11413C4.90945 8.23385 4.85513 8.3709 4.83476 8.5145L2.73039 23.375H1.04689C0.791338 23.375 0.546257 23.4738 0.365558 23.6496C0.184859 23.8254 0.0833435 24.0639 0.0833435 24.3125C0.0833435 24.5611 0.184859 24.7996 0.365558 24.9754C0.546257 25.1512 0.791338 25.25 1.04689 25.25H29.9531C30.2087 25.25 30.4538 25.1512 30.6345 24.9754C30.8152 24.7996 30.9167 24.5611 30.9167 24.3125C30.9167 24.0639 30.8152 23.8254 30.6345 23.6496C30.4538 23.4738 30.2087 23.375 29.9531 23.375H28.3344L26.23 8.516C26.2095 8.37226 26.1549 8.23513 26.0707 8.11539C25.9864 7.99566 25.8747 7.89659 25.7444 7.826C23.1282 6.40325 18.5779 3.20675 16.2724 0.514996ZM22.6156 23.3562C20.0009 19.76 18.1409 16.2597 16.4289 9.85999C16.375 9.65904 16.254 9.4812 16.085 9.35437C15.9159 9.22754 15.7084 9.15891 15.495 9.15926C15.2815 9.1596 15.0742 9.2289 14.9056 9.35627C14.737 9.48364 14.6167 9.66187 14.5634 9.863C12.6672 17.0547 10.4225 20.6375 8.35593 23.3555H4.67751L6.67782 9.22775C9.1892 7.8005 13.0495 5.09225 15.5316 2.52575C18.0137 5.09225 21.8733 7.8005 24.3846 9.22775L26.3849 23.3562H22.6156ZM20.2761 23.3562H10.7239C12.3365 21.0725 14 18.1385 15.5 13.5102C16.8567 17.6877 18.3706 20.5782 20.2761 23.3562Z" fill="#243666"/>
</svg>
